<?xml version="1.0" encoding="UTF-8"?>
<svg id="Capa_1" data-name="Capa 1" xmlns="http://www.w3.org/2000/svg" viewBox="0 0 1080 1080">
  <defs>
    <style>
      .cls-1 {
        fill: #c2850f;
      }

      .cls-2 {
        letter-spacing: -.02em;
      }

      .cls-3 {
        font-family: RalewayRoman-Regular, Raleway;
        font-size: 62.9px;
        font-variation-settings: 'wght' 400;
      }

      .cls-4 {
        font-family: Audiowide-Regular, Audiowide;
        font-size: 198.54px;
      }

      .cls-5 {
        letter-spacing: 0em;
      }

      .cls-6 {
        letter-spacing: 0em;
      }

      .cls-7 {
        fill: #a47213;
      }

      .cls-8 {
        fill: #e19902;
      }

      .cls-9 {
        fill: #8a5f13;
      }
    </style>
  </defs>
  <g>
    <g>
      <path class="cls-8" d="M319.49,451.17l145.88-46.68-145.88-47.27v-47.26l207.73,69.15v51.64l-207.73,67.98v-47.56Z"/>
      <path class="cls-7" d="M750.49,357.82l-145.88,46.68,145.88,47.27v47.26l-207.73-69.15v-51.64l207.73-67.98v47.56Z"/>
    </g>
    <g>
      <path class="cls-9" d="M542.76,131.99v47.27l140.02,45.37,67.71-23.49-207.73-69.14Z"/>
      <polygon class="cls-7" points="750.49 201.13 750.49 252.77 542.76 320.75 542.76 273.2 750.49 201.13"/>
    </g>
    <g>
      <path class="cls-9" d="M542.76,488.24v47.27l140.02,45.37,67.71-23.49-207.73-69.14Z"/>
      <polygon class="cls-7" points="750.49 557.38 750.49 609.03 542.76 677.01 542.76 629.45 750.49 557.38"/>
    </g>
    <g>
      <polygon class="cls-8" points="527.23 273.48 527.23 320.75 319.5 251.61 319.5 199.96 393.18 226.04 527.23 273.48"/>
      <polygon class="cls-1" points="527.23 131.99 527.23 179.54 393.18 226.04 319.5 199.96 527.23 131.99"/>
    </g>
    <g>
      <polygon class="cls-8" points="527.23 629.74 527.23 677.01 319.5 607.86 319.5 556.22 393.18 582.3 527.23 629.74"/>
      <polygon class="cls-1" points="527.23 488.24 527.23 535.8 393.18 582.3 319.5 556.22 527.23 488.24"/>
    </g>
  </g>
  <g>
    <text class="cls-4" transform="translate(63.26 884.73)"><tspan x="0" y="0">A</tspan><tspan class="cls-2" x="165.68" y="0">V</tspan><tspan x="315.45" y="0">ANTE</tspan></text>
    <text class="cls-3" transform="translate(559.91 949.01)"><tspan x="0" y="0">departame</tspan><tspan class="cls-6" x="321.27" y="0">n</tspan><tspan class="cls-5" x="357.62" y="0">t</tspan><tspan x="378.12" y="0">os</tspan></text>
  </g>
</svg>