<?xml version="1.0" encoding="UTF-8"?>
<svg id="Capa_1" data-name="Capa 1" xmlns="http://www.w3.org/2000/svg" viewBox="10 400 1055 195">
  <defs>
    <style>
      .cls-1 {
        fill: #fecb47;
      }

      .cls-2 {
        fill: #797673;
      }

      .cls-3 {
        fill: #b7b6b3;
      }
    </style>
  </defs>
  <path d="M177.93,424.74v25.38c-17.69-8.68-33.96-13.01-48.82-13.01-19.07,0-35.12,6.16-48.17,18.47-13.05,12.31-19.58,27.43-19.58,45.36s6.68,33.52,20.03,45.74c13.36,12.23,30.08,18.34,50.17,18.34,14.6,0,30.06-4.6,46.37-13.79v25.63c-14.86,7.9-30.96,11.85-48.3,11.85-25.42,0-47.14-8.6-65.18-25.81-18.04-17.2-27.05-37.95-27.05-62.24s8.86-44.27,26.6-61.27c17.73-16.99,39.09-25.48,64.08-25.48,16.06,0,32.67,3.61,49.85,10.82Z"/>
  <path d="M503.06,437.36l-18.16,14.56c-4.8-4.98-9.15-8.69-13.05-11.14-3.9-2.44-9.53-3.67-16.9-3.67-8.06,0-14.59,1.82-19.6,5.46-5.01,3.64-7.52,8.33-7.52,14.06,0,4.96,2.19,9.35,6.57,13.16,4.37,3.81,11.83,7.98,22.38,12.51,10.54,4.53,18.75,8.75,24.62,12.65,5.87,3.91,10.69,8.22,14.47,12.94,3.77,4.72,6.58,9.7,8.42,14.93,1.84,5.23,2.77,10.77,2.77,16.6,0,13.64-4.96,25.27-14.88,34.88-9.92,9.61-21.92,14.41-36,14.41s-25.87-3.76-36.39-11.27c-10.52-7.51-18.61-18.78-24.28-33.81l22.41-6.31c8.16,18.46,20.65,27.69,37.48,27.69,8.16,0,14.94-2.44,20.35-7.32,5.41-4.88,8.12-11.04,8.12-18.49,0-4.45-1.42-8.93-4.26-13.42-2.84-4.49-6.36-8.2-10.58-11.11-4.21-2.91-10.91-6.25-20.1-10.02-9.19-3.76-16.26-7.22-21.22-10.35-4.95-3.13-9.24-6.86-12.86-11.2-3.62-4.33-6.27-8.64-7.95-12.93-1.68-4.29-2.52-8.88-2.52-13.77,0-11.75,4.72-21.77,14.17-30.05,9.45-8.28,20.91-12.42,34.39-12.42,8.93,0,17.99,1.93,27.18,5.8,9.19,3.86,16.83,9.74,22.92,17.64Z"/>
  <path d="M665.3,419.07h39.8c31.51,0,54.96,8.33,70.33,24.99,15.37,16.66,23.06,35.68,23.06,57.06s-7.94,40.62-23.83,57.19c-15.89,16.58-38.99,24.86-69.3,24.86h-40.06v-164.1ZM687.71,440.97v120.05h1.29c16.66,0,29.19-.75,37.61-2.26,8.42-1.5,16.4-4.78,23.96-9.85,7.55-5.07,13.57-11.79,18.03-20.16,4.46-8.37,6.7-17.58,6.7-27.63,0-12.62-3.56-24.05-10.69-34.26-7.13-10.22-15.65-17.09-25.57-20.61-9.92-3.52-23.25-5.28-39.99-5.28h-11.34Z"/>
  <path d="M813.38,419.07h22.15v164.1h-22.15v-164.1Z"/>
  <path d="M997.71,412.24l44.89,170.93h-21.97l-27.16-104.43-46.77,110.75-46.91-111.66-27.53,105.35h-21.84l44.89-170.93,51.38,122.3,51.03-122.3Z"/>
  <g>
    <path d="M575.34,426.88h22.16v156.29h-22.16v-156.29Z"/>
    <path d="M650.41,419.07v22.16h-127.99v-22.16h127.99Z"/>
  </g>
  <g>
    <polygon class="cls-2" points="193.82 583.13 233.08 518.14 272.36 583.13 193.82 583.13"/>
    <polygon class="cls-3" points="328.2 583.17 288.92 518.18 249.66 583.17 328.2 583.17"/>
    <polygon class="cls-1" points="379.76 583.17 340.49 518.18 301.22 583.17 379.76 583.17"/>
    <polygon points="247.48 479.19 326.14 479.19 286.7 413.92 247.48 479.19"/>
  </g>
</svg>